<svg xmlns="http://www.w3.org/2000/svg" width="27" height="28" viewBox="0 0 27 28">
  <g fill="none" fill-rule="evenodd" stroke="#AFBBBD">
    <path d="M.587 14.044C.587 6.994 6.302 1.28 13.35 1.28c7.05 0 12.766 5.714 12.766 12.764 0 7.05-5.715 12.764-12.765 12.764-7.048 0-12.763-5.715-12.763-12.764z"/>
    <path d="M10.23 10.103c0-1.724 1.398-3.12 3.12-3.12 1.726 0 3.123 1.396 3.123 3.12 0 1.725-1.397 3.122-3.122 3.122-1.722 0-3.12-1.397-3.12-3.122zM20.33 19.634c0-1.798-1.474-3.27-3.272-3.27H9.645c-1.8 0-3.27 1.472-3.27 3.27"/>
  </g>
</svg>
