<svg xmlns="http://www.w3.org/2000/svg" width="25" height="26" viewBox="0 0 25 26">
  <g fill="none" fill-rule="evenodd" stroke="#AFBBBD">
    <path d="M2.093 1.93C3.04.982 5.898.824 5.92 1.326c.022.5 2.575 6.062 2.598 6.564.022.5-1.685 2.21-2.184 2.71-.493.497 3.337 4.836 3.41 4.918.082.073 4.41 3.913 4.905 3.418.498-.5 2.204-2.21 2.704-2.188.5.022 6.05 2.58 6.55 2.603.5.024.342 2.888-.606 3.838-.807.81-4.995 3.753-12.28-1.502-.798-.46-2.063-1.518-3.98-3.44-.003 0-.003-.002-.004-.002l-.004-.005c0-.002-.003-.003-.004-.005l-.005-.005c-1.916-1.922-2.97-3.19-3.428-3.99-5.243-7.3-2.307-11.5-1.5-12.31z"/>
    <path d="M19.846 9.912l-6.32.126.217-6.23M13.526 10.038L22.2 1.363"/>
  </g>
</svg>
