<?xml version="1.0" encoding="UTF-8" standalone="no"?>
<svg width="14px" height="14px" viewBox="0 0 14 14" version="1.1" xmlns="http://www.w3.org/2000/svg" xmlns:xlink="http://www.w3.org/1999/xlink">
    <!-- Generator: Sketch 3.8.1 (29687) - http://www.bohemiancoding.com/sketch -->
    <title>Gamburger</title>
    <desc>Created with Sketch.</desc>
    <defs></defs>
    <g id="Page-1" stroke="none" stroke-width="1" fill="none" fill-rule="evenodd">
        <g id="katalog-v4.1-Mobile-Portrait-2" transform="translate(-284.000000, -207.000000)" fill="#A3AFB1">
            <path d="M289.647922,221.699351 L289.647922,205.756493 C289.647922,205.231922 290.132482,204.727922 290.727922,204.727922 C291.324802,204.727922 291.807922,205.231922 291.807922,205.756493 L291.807922,221.699351 C291.807922,222.224672 291.324802,222.727922 290.727922,222.727922 C290.132482,222.727922 289.647922,222.224672 289.647922,221.699351 L289.647922,221.699351 L289.647922,221.699351 Z M282.756493,212.647922 L298.699351,212.647922 C299.224672,212.647922 299.727922,213.131762 299.727922,213.727922 C299.727922,214.324802 299.224672,214.807922 298.699351,214.807922 L282.756493,214.807922 C282.231922,214.807922 281.727922,214.324802 281.727922,213.727922 C281.727922,213.131762 282.231922,212.647922 282.756493,212.647922 L282.756493,212.647922 L282.756493,212.647922 Z" id="Gamburger" transform="translate(290.727922, 213.727922) rotate(-45.000000) translate(-290.727922, -213.727922) "></path>
        </g>
    </g>
</svg>