<?xml version="1.0" encoding="UTF-8" standalone="no"?>
<svg width="9px" height="12px" viewBox="0 0 9 12" version="1.1" xmlns="http://www.w3.org/2000/svg" xmlns:xlink="http://www.w3.org/1999/xlink">
    <!-- Generator: Sketch 3.7.2 (28276) - http://www.bohemiancoding.com/sketch -->
    <title>€</title>
    <desc>Created with Sketch.</desc>
    <defs></defs>
    <g id="Page-1" stroke="none" stroke-width="1" fill="none" fill-rule="evenodd">
        <g id="main-paage-v4.1-search-open" transform="translate(-860.000000, -410.000000)" fill="#FFFFFF">
            <g id="Group-12" transform="translate(789.000000, 403.000000)">
                <path d="M76.8227539,8.23681641 C75.2651289,8.23681641 74.293459,9.22069329 73.9077148,11.1884766 L77.6430664,11.1884766 L77.6430664,12.1333008 L73.8051758,12.1333008 L73.7905273,12.5507812 L73.7905273,13.0195312 L73.8051758,13.3491211 L77.1962891,13.3491211 L77.1962891,14.2939453 L73.9223633,14.2939453 C74.1030282,15.172856 74.4411596,15.8527808 74.9367676,16.3337402 C75.4323755,16.8146997 76.0952107,17.0551758 76.925293,17.0551758 C77.6870155,17.0551758 78.4414025,16.8940446 79.1884766,16.5717773 L79.1884766,17.6704102 C78.4755824,17.9877946 77.7016643,18.1464844 76.8666992,18.1464844 C75.7094669,18.1464844 74.7780797,17.8181185 74.0725098,17.161377 C73.3669398,16.5046354 72.9018566,15.5488344 72.6772461,14.2939453 L71.4614258,14.2939453 L71.4614258,13.3491211 L72.574707,13.3491211 L72.5600586,13.0415039 L72.5600586,12.7192383 L72.574707,12.1333008 L71.4614258,12.1333008 L71.4614258,11.1884766 L72.6625977,11.1884766 C72.8530283,9.91405613 73.3046839,8.92041372 74.0175781,8.20751953 C74.7304723,7.49462534 75.6655216,7.13818359 76.8227539,7.13818359 C77.8042041,7.13818359 78.6977499,7.37499763 79.503418,7.84863281 L78.9833984,8.86669922 C78.1728475,8.44677524 77.4526399,8.23681641 76.8227539,8.23681641 L76.8227539,8.23681641 Z" id="€"></path>
            </g>
        </g>
    </g>
</svg>