<?xml version="1.0" encoding="UTF-8" standalone="no"?>
<svg width="14px" height="14px" viewBox="0 0 14 14" version="1.1" xmlns="http://www.w3.org/2000/svg" xmlns:xlink="http://www.w3.org/1999/xlink">
    <!-- Generator: Sketch 3.8.1 (29687) - http://www.bohemiancoding.com/sketch -->
    <title>Gamburger</title>
    <desc>Created with Sketch.</desc>
    <defs></defs>
    <g id="Page-1" stroke="none" stroke-width="1" fill="none" fill-rule="evenodd">
        <g id="katalog-v4.1-copy-2" transform="translate(-29.000000, -146.000000)" fill="#A3AFB1">
            <path d="M34.92,160.699351 L34.92,144.756493 C34.92,144.231922 35.40456,143.727922 36,143.727922 C36.59688,143.727922 37.08,144.231922 37.08,144.756493 L37.08,160.699351 C37.08,161.224672 36.59688,161.727922 36,161.727922 C35.40456,161.727922 34.92,161.224672 34.92,160.699351 L34.92,160.699351 L34.92,160.699351 Z M28.0285714,151.647922 L43.9714286,151.647922 C44.49675,151.647922 45,152.131762 45,152.727922 C45,153.324802 44.49675,153.807922 43.9714286,153.807922 L28.0285714,153.807922 C27.504,153.807922 27,153.324802 27,152.727922 C27,152.131762 27.504,151.647922 28.0285714,151.647922 L28.0285714,151.647922 L28.0285714,151.647922 Z" id="Gamburger" transform="translate(36.000000, 152.727922) rotate(-45.000000) translate(-36.000000, -152.727922) "></path>
        </g>
    </g>
</svg>