<?xml version="1.0" encoding="UTF-8" standalone="no"?>
<svg width="25px" height="17px" viewBox="0 0 25 17" version="1.1" xmlns="http://www.w3.org/2000/svg" xmlns:xlink="http://www.w3.org/1999/xlink">
    <!-- Generator: Sketch 3.8.1 (29687) - http://www.bohemiancoding.com/sketch -->
    <title>Gamburger</title>
    <desc>Created with Sketch.</desc>
    <defs></defs>
    <g id="Page-1" stroke="none" stroke-width="1" fill="none" fill-rule="evenodd">
        <g id="katalog-v4.1" transform="translate(-21.000000, -144.000000)" fill="#FFFFFF">
            <path d="M44.5714286,154 L22.4285714,154 C21.7,154 21,153.328 21,152.5 C21,151.671 21.7,151 22.4285714,151 L44.5714286,151 C45.3010417,151 46,151.671 46,152.5 C46,153.328 45.3010417,154 44.5714286,154 L44.5714286,154 L44.5714286,154 Z M44.5714286,147 L22.4285714,147 C21.7,147 21,146.327 21,145.5 C21,144.671 21.7,144 22.4285714,144 L44.5714286,144 C45.3010417,144 46,144.671 46,145.5 C46,146.327 45.3010417,147 44.5714286,147 L44.5714286,147 L44.5714286,147 Z M22.4285714,158 L44.5714286,158 C45.3010417,158 46,158.672 46,159.5 C46,160.329 45.3010417,161 44.5714286,161 L22.4285714,161 C21.7,161 21,160.329 21,159.5 C21,158.672 21.7,158 22.4285714,158 L22.4285714,158 L22.4285714,158 Z" id="Gamburger"></path>
        </g>
    </g>
</svg>