<svg xmlns="http://www.w3.org/2000/svg" width="195" height="42" viewBox="0 0 195 42" xmlns:xlink="http://www.w3.org/1999/xlink">
  <title>
    Logo
  </title>
  <defs>
    <path id="a" d="M.146 23.126h13.922V.04H.146v23.086z"/>
    <linearGradient id="c" x1="31.66%" x2="86.014%" y1="35.857%" y2="29.191%">
      <stop stop-color="#4F406D" offset="0%"/>
      <stop stop-color="#E40614" offset="100%"/>
    </linearGradient>
  </defs>
  <g fill="none" fill-rule="evenodd">
    <path fill="#FFF" d="M159.423 19.816c-4.46 0-7.58-3.33-7.58-8.092 0-4.76 3.12-8.085 7.58-8.085 4.462 0 7.577 3.32 7.577 8.08s-3.115 8.09-7.577 8.09m0-19.64c-6.368 0-11.168 4.96-11.168 11.54 0 6.59 4.8 11.54 11.168 11.54 6.365 0 11.17-4.96 11.17-11.55 0-6.58-4.805-11.54-11.17-11.54M63.75 22.84h12.01v-3.52h-8.42v-6.847h8.17V8.95h-8.17V4.1h8.42V.578H63.75"/>
    <g transform="translate(78.157 .142)">
      <mask id="b" fill="#fff">
        <use xlink:href="#a"/>
      </mask>
      <path fill="#FFF" d="M8.986 9.313l-2.12-.887c-1.46-.607-2.17-1.418-2.17-2.488 0-1.48 1.1-2.44 2.8-2.44.895 0 1.543.222 2.16.745.415.372.7.785.902 1.308l.078.2 2.92-1.77-.075-.15c-.4-.84-.99-1.65-1.65-2.25C10.69.56 9.22.04 7.47.04c-4.177 0-6.358 3-6.358 5.967 0 2.52 1.482 4.446 4.414 5.718l2.027.887c1.524.643 2.934 1.523 2.934 3.57 0 2.02-1.392 3.492-3.306 3.492-1.1 0-1.98-.42-2.61-1.242-.53-.727-.85-1.728-.85-2.678v-.23l-3.57.806.02.17c.14 1.7.74 3.13 1.82 4.378 1.33 1.54 2.96 2.258 5.11 2.258 4.12 0 6.99-2.963 6.99-7.21 0-3.044-1.61-5.145-5.08-6.603" mask="url(#b)"/>
    </g>
    <path fill="#FFF" d="M106.347.578H93.07V4.1h4.846v18.745h3.585V4.1h4.85M52.48 22.844L62.348.578h-3.88l-6.73 15.007L45 .578h-3.87l9.865 22.266M189.33.578l-6.58 15.095L176.226.578h-1.28l-4.196 22.267h3.66l2.14-12.78 5.456 12.78h1.11l5.51-12.75 2.053 12.596.02.16h3.66L190.59.58m-56.735 18.74l5.153-11.483 5.152 11.482h-10.305zM139.748.577h-1.48L128.4 22.844h21.216L139.748.578zm-26.48 13.328l2.72-6.068 2.724 6.068h-5.445zm3.46-13.327h-1.48l-9.87 22.266h3.88l2.43-5.417h8.602l2.43 5.417h3.875L116.728.578z"/>
    <path fill="url(#c)" d="M20.006.52h9.972l-9.283 22.383h-9.973" transform="translate(0 .405)"/>
    <path fill="#2A64A1" d="M20.365 23.458l-9.898-22.24H0l9.896 22.24"/>
    <path fill="#E30613" d="M40.162 23.458l-9.9-22.24H19.794l9.897 22.24"/>
    <path fill="#711205" d="M19.794 1.217l4.678 13.013.557-1.25"/>
    <path fill="#FFF" d="M7.636 40.338l2.226-6.056h1.057l2.22 6.056h-1.03l-.6-1.675H9.24l-.58 1.675H7.63zm1.892-2.525h1.733l-.55-1.642c-.12-.33-.23-.67-.32-1.03-.07.34-.18.71-.32 1.11l-.54 1.57zm5.096 2.525v-6.03h3.53v.844h-2.558v5.186h-.972zm5.194 0v-6.03h3.364v.832H20.79v1.642h2.242v.825H20.79V39.5h2.392v.838h-3.364zm5.344 0v-6.03h.972v2.466h2.742v-2.467h.976v6.03h-.976V37.62h-2.742v2.718h-.972zm6.284-5.186v-.845h4.47v.845h-1.75v5.186h-.97v-5.186h-1.75zm5.617 2.17c0-.627.113-1.175.34-1.646.226-.47.553-.83.982-1.08.428-.25.94-.376 1.53-.376.594 0 1.148.13 1.663.388l-.35.82c-.504-.24-.952-.362-1.342-.362-.56 0-.998.2-1.318.602-.32.4-.48.964-.48 1.687 0 .723.154 1.275.46 1.654.31.38.755.57 1.338.57.4 0 .888-.1 1.468-.28v.84c-.466.18-.995.27-1.586.27-.87 0-1.54-.27-2.006-.81-.466-.54-.7-1.3-.7-2.3zm5.6-2.17v-.845h4.47v.845h-1.748v5.186h-.973v-5.186h-1.75zm6.076 5.186v-6.03h1.76c.82 0 1.41.12 1.77.362s.54.624.54 1.146c0 .353-.09.645-.27.88-.18.233-.44.38-.77.44v.042c.42.08.72.237.92.472.2.235.29.554.29.955 0 .542-.19.966-.56 1.273-.37.306-.89.46-1.56.46h-2.14zm.97-.83h1.03c.4 0 .71-.08.92-.237.21-.15.31-.4.31-.74 0-.61-.43-.92-1.28-.92h-.99v1.91zm0-2.71h.93c.4 0 .7-.065.89-.196.19-.13.28-.345.28-.643 0-.3-.1-.52-.31-.64-.2-.13-.53-.19-.96-.19h-.84v1.66zm4.93.508c0-.996.24-1.76.72-2.294.48-.533 1.17-.8 2.06-.8.89 0 1.57.27 2.06.812.48.542.72 1.305.72 2.288 0 .983-.24 1.747-.73 2.29-.49.546-1.17.818-2.07.818-.89 0-1.58-.27-2.06-.81s-.72-1.31-.72-2.304zm1.03.01c0 .74.15 1.303.44 1.687.29.384.73.576 1.31.576 1.16 0 1.75-.76 1.75-2.27 0-.74-.15-1.3-.44-1.69-.3-.38-.73-.58-1.31-.58-.58 0-1.02.19-1.32.57-.3.38-.45.94-.45 1.68zm8.85-2.708c.54-.26 1.15-.388 1.82-.388.88 0 1.57.27 2.06.81.48.54.73 1.303.73 2.286 0 .983-.25 1.746-.74 2.29-.5.543-1.21.814-2.14.814-.62 0-1.17-.09-1.66-.268v-.846c.62.182 1.14.273 1.56.273.62 0 1.1-.17 1.42-.49.32-.33.49-.81.51-1.44h-2.75v-.84h2.75c-.04-.55-.22-.98-.53-1.29-.32-.31-.71-.46-1.19-.46s-.98.12-1.5.35l-.35-.82zm5.67 5.72v-.82c.15.07.31.104.49.104.17 0 .31-.12.42-.357.11-.238.23-.764.36-1.578.13-.814.29-1.938.47-3.37h3.47v6.03h-.97v-5.185h-1.69c-.22 1.76-.39 2.958-.52 3.593-.13.636-.31 1.078-.55 1.327-.24.248-.55.37-.93.36-.2 0-.39-.034-.57-.103zm7.48.01v-6.03h.89v3.134c0 .522-.02 1.08-.06 1.67h.03l3.04-4.805h1.13v6.03h-.9v-3.11c0-.475.02-1.053.07-1.732h-.03l-3.05 4.843h-1.14zm6.62-5.186v-.845h4.47v.845h-1.74v5.186h-.98v-5.186H84.3zm6.07 5.186v-6.03h.97v2.466h2.74v-2.467h.98v6.03h-.98V37.62h-2.74v2.718h-.97zm6.65-3.032c0-.996.24-1.76.73-2.294.48-.533 1.17-.8 2.06-.8.89 0 1.58.27 2.06.812s.72 1.305.72 2.288c0 .983-.24 1.747-.73 2.29-.49.546-1.18.818-2.07.818s-1.58-.27-2.06-.81S97 38.3 97 37.306zm1.03.01c0 .74.14 1.303.44 1.687.29.384.73.576 1.31.576 1.16 0 1.75-.76 1.75-2.27 0-.74-.15-1.3-.44-1.69-.29-.38-.73-.58-1.31-.58s-1.02.19-1.31.57c-.3.38-.45.94-.45 1.68zm6.51 3.022v-6.03h.89v3.134c0 .522-.02 1.08-.06 1.67h.03l3.04-4.805h1.13v6.03h-.895v-3.11c0-.475.027-1.053.08-1.732h-.034l-3.05 4.843h-1.14zm.84-7.883h.86c.03.374.15.606.36.697.11.05.29.074.53.074.25 0 .44-.06.58-.18.13-.12.22-.316.25-.59h.88c-.04.472-.2.818-.49 1.038-.29.22-.72.33-1.28.33-.57 0-.99-.105-1.25-.315-.27-.22-.42-.57-.45-1.06zm9.3 7.883v-6.03h.97v2.466h2.74v-2.467h.98v6.03h-.98V37.62h-2.74v2.718h-.97zm6.95 0v-6.03H125v.832h-2.39v1.642h2.24v.825h-2.24V39.5h2.393v.838h-3.364zm4.61-.846h.46c.39-.73.72-1.547.98-2.454.263-.908.434-1.818.51-2.73h3.07v5.184h.77V42h-.94v-1.662h-3.93V42h-.934v-2.508zm1.48 0h2.57v-4.33h-1.287c-.06.623-.21 1.347-.454 2.17-.24.824-.52 1.544-.83 2.16zm5.97.846v-6.03h1.76c.82 0 1.41.12 1.78.362.36.242.543.624.543 1.146 0 .353-.09.645-.27.88-.18.233-.44.38-.778.44v.042c.415.08.723.237.92.472.196.235.294.554.294.955 0 .542-.19.966-.56 1.273-.373.306-.89.46-1.556.46h-2.15zm.97-.83h1.03c.41 0 .72-.08.925-.237.205-.15.31-.4.31-.74 0-.61-.428-.92-1.28-.92h-.987v1.91zm0-2.71h.933c.41 0 .705-.065.89-.196.19-.13.28-.345.28-.643 0-.3-.1-.52-.3-.64-.2-.13-.52-.19-.96-.19h-.844v1.66zm5.22 3.54v-6.03h.89v3.134c0 .522-.02 1.08-.06 1.67h.04l3.04-4.805h1.13v6.03h-.9v-3.11c0-.475.026-1.053.08-1.732h-.035l-3.05 4.843h-1.14zm6.51 0l2.273-3.12-2.17-2.91h1.046l2.116 2.92v-2.92h.93v2.92l2.12-2.92h1.04l-2.17 2.91 2.263 3.12h-1.07l-2.173-3.057v3.06h-.924v-3.06l-2.176 3.06h-1.084zm8.92 0v-6.03h.89v3.134c0 .522-.02 1.08-.06 1.67h.035l3.04-4.805h1.133v6.03h-.89v-3.11c0-.475.02-1.053.07-1.732h-.03l-3.05 4.843h-1.14zm7.292 0v-6.03H164l1.65 4.796h.027l1.7-4.797h1.37v6.03h-.936v-2.982c0-.3.01-.69.02-1.17.01-.483.03-.774.04-.876h-.04l-1.78 5.02h-.85l-1.73-5.04h-.03c.05.75.07 1.45.07 2.1v2.93h-.88zm8.09-3.032c0-.996.24-1.76.727-2.294.485-.533 1.173-.8 2.064-.8.89 0 1.58.27 2.06.812.487.542.73 1.305.73 2.288 0 .983-.24 1.747-.726 2.29-.48.546-1.17.818-2.06.818s-1.58-.27-2.06-.81-.728-1.31-.728-2.304zm1.034.01c0 .74.15 1.303.443 1.687.294.384.73.576 1.313.576 1.165 0 1.748-.76 1.748-2.27 0-.74-.143-1.3-.434-1.69-.29-.38-.73-.58-1.31-.58s-1.02.19-1.315.57c-.295.38-.444.94-.444 1.68zm6.22.006c0-.627.11-1.175.34-1.646.224-.47.55-.83.98-1.08.43-.25.94-.376 1.53-.376s1.15.13 1.664.388l-.35.82c-.505-.24-.95-.362-1.34-.362-.56 0-1 .2-1.32.602-.32.4-.48.964-.48 1.687 0 .723.153 1.275.46 1.654.31.38.76.57 1.34.57.4 0 .89-.1 1.47-.28v.84c-.47.18-1 .27-1.59.27-.87 0-1.54-.27-2-.81-.47-.54-.7-1.3-.7-2.3zm5.6-2.17v-.845h4.47v.845h-1.75v5.186h-.97v-5.186h-1.75zm6.075 5.186v-6.03h.89v3.134c0 .522-.02 1.08-.06 1.67h.04l3.04-4.805h1.13v6.03h-.9v-3.11c0-.475.03-1.053.08-1.732h-.03l-3.05 4.843h-1.14z"/>
  </g>
</svg>
