<svg xmlns="http://www.w3.org/2000/svg" width="27" height="19" viewBox="0 0 27 19" xmlns:xlink="http://www.w3.org/1999/xlink">
  <defs>
    <path id="a" d="M.728 4.154h4.167V.387H.728v3.767z"/>
  </defs>
  <g fill="none" fill-rule="evenodd">
    <path stroke="#AFBBBD" d="M13.08 15.41H2.954C1.61 15.41.52 14.32.52 12.975V2.955C.52 1.61 1.61.518 2.955.518h18.197c1.345 0 2.435 1.09 2.435 2.434V6.93"/>
    <path stroke="#AFBBBD" d="M1.243 1.223l10.81 6.99 10.81-6.99M26.018 11.336l-8.956 5.812-1.6-2.47 8.957-5.812z"/>
    <g transform="translate(12.462 14.03)">
      <mask id="b" fill="#fff">
        <use xlink:href="#a"/>
      </mask>
      <path fill="#FEFEFE" d="M3.076.387L.728 4.154l4.167-.96L3.075.388zm.017 1.937l.124.192-.285.065.16-.256z" mask="url(#b)"/>
    </g>
    <path stroke="#AFBBBD" d="M22.914 9.842l1.62 2.458"/>
  </g>
</svg>
