<?xml version="1.0" encoding="UTF-8" standalone="no"?>
<svg width="10px" height="11px" viewBox="0 0 10 11" version="1.1" xmlns="http://www.w3.org/2000/svg" xmlns:xlink="http://www.w3.org/1999/xlink">
    <!-- Generator: Sketch 3.7.2 (28276) - http://www.bohemiancoding.com/sketch -->
    <title>Group 8</title>
    <desc>Created with Sketch.</desc>
    <defs></defs>
    <g id="Page-1" stroke="none" stroke-width="1" fill="none" fill-rule="evenodd">
        <g id="main-paage-v4.1-search-open" transform="translate(-796.000000, -409.000000)">
            <g id="Group-12" transform="translate(789.000000, 403.000000)">
                <g id="Group-8" transform="translate(7.000000, 6.000000)">
                    <path d="M9.50341797,3.52929688 C9.50341797,4.64746653 9.13721069,5.50439155 8.40478516,6.10009766 C7.67235962,6.69580376 6.62988958,6.99365234 5.27734375,6.99365234 L4.1640625,6.99365234 L4.1640625,11 L2.41357422,11 L2.41357422,0.291992188 L5.49707031,0.291992188 C6.83496763,0.291992188 7.83715487,0.565426953 8.50366211,1.11230469 C9.17016935,1.65918242 9.50341797,2.46483843 9.50341797,3.52929688 L9.50341797,3.52929688 Z M4.1640625,5.52148438 L5.09423828,5.52148438 C5.99268027,5.52148438 6.65185337,5.36523594 7.07177734,5.05273438 C7.49170132,4.74023281 7.70166016,4.25195645 7.70166016,3.58789062 C7.70166016,2.97265317 7.51367375,2.51367339 7.13769531,2.2109375 C6.76171687,1.90820161 6.17578523,1.75683594 5.37988281,1.75683594 L4.1640625,1.75683594 L4.1640625,5.52148438 Z" id="P" fill="#000000"></path>
                    <path d="M3.5,6.5 L0.5,6.5" id="Line" stroke="#000000" stroke-linecap="square"></path>
                    <path d="M6.5,8.5 L0.5,8.5" id="Line-Copy-4" stroke="#000000" stroke-linecap="square"></path>
                </g>
            </g>
        </g>
    </g>
</svg>