<?xml version="1.0" encoding="UTF-8" standalone="no"?>
<svg width="8px" height="13px" viewBox="0 0 8 13" version="1.1" xmlns="http://www.w3.org/2000/svg" xmlns:xlink="http://www.w3.org/1999/xlink">
    <!-- Generator: Sketch 3.7.2 (28276) - http://www.bohemiancoding.com/sketch -->
    <title>$</title>
    <desc>Created with Sketch.</desc>
    <defs></defs>
    <g id="Page-1" stroke="none" stroke-width="1" fill="none" fill-rule="evenodd">
        <g id="main-paage-v4.1-search-open" transform="translate(-829.000000, -409.000000)" fill="#1A1F22">
            <g id="Group-12" transform="translate(789.000000, 403.000000)">
                <path d="M47.5878906,14.7114258 C47.5878906,15.3754916 47.3388697,15.9235818 46.8408203,16.3557129 C46.3427709,16.787844 45.6469771,17.060058 44.753418,17.1723633 L44.753418,18.871582 L43.8085938,18.871582 L43.8085938,17.2382812 C43.261716,17.2382812 42.7319362,17.1955571 42.2192383,17.1101074 C41.7065404,17.0246578 41.2866227,16.9062508 40.9594727,16.7548828 L40.9594727,15.6123047 C41.3647481,15.7929697 41.8322727,15.9406733 42.3620605,16.0554199 C42.8918484,16.1701666 43.3740213,16.2275391 43.8085938,16.2275391 L43.8085938,13.0048828 C42.8076122,12.6874984 42.1057149,12.3188498 41.7028809,11.8989258 C41.3000468,11.4790018 41.0986328,10.937015 41.0986328,10.2729492 C41.0986328,9.63329758 41.3464331,9.10840049 41.842041,8.69824219 C42.337649,8.28808389 42.99316,8.03906294 43.8085938,7.95117188 L43.8085938,6.61816406 L44.753418,6.61816406 L44.753418,7.93652344 C45.65186,7.96093762 46.5185505,8.14159988 47.3535156,8.47851562 L46.9726562,9.43798828 C46.2451135,9.1499009 45.5053749,8.97900417 44.753418,8.92529297 L44.753418,12.1040039 C45.5200234,12.3481458 46.0937481,12.5861805 46.4746094,12.8181152 C46.8554707,13.05005 47.1362296,13.3161606 47.3168945,13.6164551 C47.4975595,13.9167495 47.5878906,14.2817361 47.5878906,14.7114258 L47.5878906,14.7114258 Z M46.3427734,14.8066406 C46.3427734,14.4550764 46.2341319,14.1706554 46.0168457,13.9533691 C45.7995595,13.7360829 45.3784211,13.5200206 44.753418,13.3051758 L44.753418,16.1542969 C45.8129936,16.0078118 46.3427734,15.5585975 46.3427734,14.8066406 L46.3427734,14.8066406 Z M42.3364258,10.2583008 C42.3364258,10.6293964 42.446288,10.927245 42.6660156,11.1518555 C42.8857433,11.376466 43.2665989,11.5888662 43.8085938,11.7890625 L43.8085938,8.95458984 C43.3251929,9.03271523 42.9589856,9.1853016 42.7099609,9.41235352 C42.4609363,9.63940543 42.3364258,9.92138503 42.3364258,10.2583008 L42.3364258,10.2583008 Z" id="$"></path>
            </g>
        </g>
    </g>
</svg>